# xmcd
#
# Track frame offsets:
#	150
#	26951
#	83502
#	182966
#	202671
#	217871
#
# Disc length: 4100 seconds
#
# Revision: 0
# Processed by: cddbd v1.5.2PL0 Copyright (c) Steve Scherf et al.
# Submitted via: EZCDAudioConverter 1.3.4.1
#
DISCID=45100206
DTITLE=Tangerine Dream - Sunrise In The Third System 1/2
DYEAR=2011
DGENRE=
TTITLE0=Genesis
TTITLE1=Journey Through A Burning Brain
TTITLE2=Alpha Centauri
TTITLE3=Sunrise In The Third System
TTITLE4=Ultima Thule (Part 1)
TTITLE5=Birth Of Liquid Plejades
EXTD=
EXTT0=
EXTT1=
EXTT2=
EXTT3=
EXTT4=
EXTT5=
PLAYORDER=
